<mxfile host="Electron" modified="2024-05-04T14:35:24.912Z" agent="Mozilla/5.0 (X11; Linux x86_64) AppleWebKit/537.36 (KHTML, like Gecko) draw.io/24.2.5 Chrome/120.0.6099.109 Electron/28.1.0 Safari/537.36" etag="lsYETjYOYZ5cTa3Rsn-K" version="24.2.5" type="device">
  <diagram id="R2lEEEUBdFMjLlhIrx00" name="Page-1">
    <mxGraphModel dx="1434" dy="835" grid="1" gridSize="10" guides="1" tooltips="1" connect="1" arrows="1" fold="1" page="1" pageScale="1" pageWidth="850" pageHeight="1100" math="0" shadow="0" extFonts="Permanent Marker^https://fonts.googleapis.com/css?family=Permanent+Marker">
      <root>
        <mxCell id="0" />
        <mxCell id="1" parent="0" />
        <mxCell id="C-vyLk0tnHw3VtMMgP7b-23" value="ConceptionKind 概念类型" style="shape=table;startSize=30;container=1;collapsible=1;childLayout=tableLayout;fixedRows=1;rowLines=0;fontStyle=1;align=center;resizeLast=1;labelBackgroundColor=none;fillColor=#FAE5C7;strokeColor=#0F8B8D;fontColor=#143642;rounded=0;sketch=1;curveFitting=1;jiggle=2;" parent="1" vertex="1">
          <mxGeometry x="130" y="450" width="170" height="30" as="geometry" />
        </mxCell>
        <mxCell id="C-vyLk0tnHw3VtMMgP7b-24" value="" style="shape=partialRectangle;collapsible=0;dropTarget=0;pointerEvents=0;fillColor=none;points=[[0,0.5],[1,0.5]];portConstraint=eastwest;top=0;left=0;right=0;bottom=1;labelBackgroundColor=none;strokeColor=#0F8B8D;fontColor=#143642;rounded=0;sketch=1;curveFitting=1;jiggle=2;" parent="C-vyLk0tnHw3VtMMgP7b-23" vertex="1" visible="0">
          <mxGeometry y="30" width="250" height="30" as="geometry" />
        </mxCell>
        <mxCell id="C-vyLk0tnHw3VtMMgP7b-25" value="" style="shape=partialRectangle;overflow=hidden;connectable=0;fillColor=none;top=0;left=0;bottom=0;right=0;fontStyle=1;labelBackgroundColor=none;strokeColor=#0F8B8D;fontColor=#143642;rounded=0;sketch=1;curveFitting=1;jiggle=2;" parent="C-vyLk0tnHw3VtMMgP7b-24" vertex="1">
          <mxGeometry width="30" height="30" as="geometry">
            <mxRectangle width="30" height="30" as="alternateBounds" />
          </mxGeometry>
        </mxCell>
        <mxCell id="C-vyLk0tnHw3VtMMgP7b-26" value="" style="shape=partialRectangle;overflow=hidden;connectable=0;fillColor=none;top=0;left=0;bottom=0;right=0;align=left;spacingLeft=6;fontStyle=5;labelBackgroundColor=none;strokeColor=#0F8B8D;fontColor=#143642;rounded=0;sketch=1;curveFitting=1;jiggle=2;" parent="C-vyLk0tnHw3VtMMgP7b-24" vertex="1">
          <mxGeometry x="30" width="220" height="30" as="geometry">
            <mxRectangle width="220" height="30" as="alternateBounds" />
          </mxGeometry>
        </mxCell>
        <mxCell id="11U5n9VlO6xv_BTQKGKY-14" value="RelationKind 关系类型" style="shape=table;startSize=30;container=1;collapsible=1;childLayout=tableLayout;fixedRows=1;rowLines=0;fontStyle=1;align=center;resizeLast=1;labelBackgroundColor=none;fillColor=#FAE5C7;strokeColor=#0F8B8D;fontColor=#143642;rounded=0;sketch=1;curveFitting=1;jiggle=2;" parent="1" vertex="1">
          <mxGeometry x="632" y="450" width="170" height="30" as="geometry" />
        </mxCell>
        <mxCell id="11U5n9VlO6xv_BTQKGKY-15" value="" style="shape=partialRectangle;collapsible=0;dropTarget=0;pointerEvents=0;fillColor=none;points=[[0,0.5],[1,0.5]];portConstraint=eastwest;top=0;left=0;right=0;bottom=1;labelBackgroundColor=none;strokeColor=#0F8B8D;fontColor=#143642;rounded=0;sketch=1;curveFitting=1;jiggle=2;" parent="11U5n9VlO6xv_BTQKGKY-14" vertex="1" visible="0">
          <mxGeometry y="30" width="250" height="30" as="geometry" />
        </mxCell>
        <mxCell id="11U5n9VlO6xv_BTQKGKY-16" value="" style="shape=partialRectangle;overflow=hidden;connectable=0;fillColor=none;top=0;left=0;bottom=0;right=0;fontStyle=1;labelBackgroundColor=none;strokeColor=#0F8B8D;fontColor=#143642;rounded=0;sketch=1;curveFitting=1;jiggle=2;" parent="11U5n9VlO6xv_BTQKGKY-15" vertex="1">
          <mxGeometry width="30" height="30" as="geometry">
            <mxRectangle width="30" height="30" as="alternateBounds" />
          </mxGeometry>
        </mxCell>
        <mxCell id="11U5n9VlO6xv_BTQKGKY-17" value="" style="shape=partialRectangle;overflow=hidden;connectable=0;fillColor=none;top=0;left=0;bottom=0;right=0;align=left;spacingLeft=6;fontStyle=5;labelBackgroundColor=none;strokeColor=#0F8B8D;fontColor=#143642;rounded=0;sketch=1;curveFitting=1;jiggle=2;" parent="11U5n9VlO6xv_BTQKGKY-15" vertex="1">
          <mxGeometry x="30" width="220" height="30" as="geometry">
            <mxRectangle width="220" height="30" as="alternateBounds" />
          </mxGeometry>
        </mxCell>
        <mxCell id="11U5n9VlO6xv_BTQKGKY-18" value="" style="edgeStyle=entityRelationEdgeStyle;fontSize=12;html=1;endArrow=ERzeroToMany;startArrow=ERmandOne;rounded=0;entryX=0;entryY=0.25;entryDx=0;entryDy=0;labelBackgroundColor=none;fontColor=default;strokeColor=#A8201A;sketch=1;curveFitting=1;jiggle=2;" parent="1" source="C-vyLk0tnHw3VtMMgP7b-23" target="11U5n9VlO6xv_BTQKGKY-19" edge="1">
          <mxGeometry width="100" height="100" relative="1" as="geometry">
            <mxPoint x="370" y="530" as="sourcePoint" />
            <mxPoint x="510" y="510" as="targetPoint" />
          </mxGeometry>
        </mxCell>
        <mxCell id="11U5n9VlO6xv_BTQKGKY-19" value=" AttributesViewKind 属性视图类型" style="shape=table;startSize=30;container=1;collapsible=1;childLayout=tableLayout;fixedRows=1;rowLines=0;fontStyle=1;align=center;resizeLast=1;labelBackgroundColor=none;fillColor=#FAE5C7;strokeColor=#0F8B8D;fontColor=#143642;rounded=0;sketch=1;curveFitting=1;jiggle=2;" parent="1" vertex="1">
          <mxGeometry x="360" y="410" width="210" height="30" as="geometry" />
        </mxCell>
        <mxCell id="11U5n9VlO6xv_BTQKGKY-20" value="" style="shape=partialRectangle;collapsible=0;dropTarget=0;pointerEvents=0;fillColor=none;points=[[0,0.5],[1,0.5]];portConstraint=eastwest;top=0;left=0;right=0;bottom=1;labelBackgroundColor=none;strokeColor=#0F8B8D;fontColor=#143642;rounded=0;sketch=1;curveFitting=1;jiggle=2;" parent="11U5n9VlO6xv_BTQKGKY-19" vertex="1" visible="0">
          <mxGeometry y="30" width="250" height="30" as="geometry" />
        </mxCell>
        <mxCell id="11U5n9VlO6xv_BTQKGKY-21" value="" style="shape=partialRectangle;overflow=hidden;connectable=0;fillColor=none;top=0;left=0;bottom=0;right=0;fontStyle=1;labelBackgroundColor=none;strokeColor=#0F8B8D;fontColor=#143642;rounded=0;sketch=1;curveFitting=1;jiggle=2;" parent="11U5n9VlO6xv_BTQKGKY-20" vertex="1">
          <mxGeometry width="30" height="30" as="geometry">
            <mxRectangle width="30" height="30" as="alternateBounds" />
          </mxGeometry>
        </mxCell>
        <mxCell id="11U5n9VlO6xv_BTQKGKY-22" value="" style="shape=partialRectangle;overflow=hidden;connectable=0;fillColor=none;top=0;left=0;bottom=0;right=0;align=left;spacingLeft=6;fontStyle=5;labelBackgroundColor=none;strokeColor=#0F8B8D;fontColor=#143642;rounded=0;sketch=1;curveFitting=1;jiggle=2;" parent="11U5n9VlO6xv_BTQKGKY-20" vertex="1">
          <mxGeometry x="30" width="220" height="30" as="geometry">
            <mxRectangle width="220" height="30" as="alternateBounds" />
          </mxGeometry>
        </mxCell>
        <mxCell id="11U5n9VlO6xv_BTQKGKY-23" value="" style="edgeStyle=entityRelationEdgeStyle;fontSize=12;html=1;endArrow=ERzeroToMany;startArrow=ERmandOne;rounded=0;exitX=0;exitY=0.25;exitDx=0;exitDy=0;entryX=1;entryY=0.25;entryDx=0;entryDy=0;labelBackgroundColor=none;fontColor=default;strokeColor=#A8201A;sketch=1;curveFitting=1;jiggle=2;" parent="1" source="11U5n9VlO6xv_BTQKGKY-14" target="11U5n9VlO6xv_BTQKGKY-19" edge="1">
          <mxGeometry width="100" height="100" relative="1" as="geometry">
            <mxPoint x="100" y="570" as="sourcePoint" />
            <mxPoint x="300" y="605" as="targetPoint" />
          </mxGeometry>
        </mxCell>
        <mxCell id="11U5n9VlO6xv_BTQKGKY-24" value="ConceptionEntity 概念实体" style="shape=table;startSize=30;container=1;collapsible=1;childLayout=tableLayout;fixedRows=1;rowLines=0;fontStyle=1;align=center;resizeLast=1;labelBackgroundColor=none;fillColor=#FAE5C7;strokeColor=#0F8B8D;fontColor=#143642;rounded=0;sketch=1;curveFitting=1;jiggle=2;" parent="1" vertex="1">
          <mxGeometry x="180" y="520" width="180" height="30" as="geometry" />
        </mxCell>
        <mxCell id="11U5n9VlO6xv_BTQKGKY-25" value="" style="shape=partialRectangle;collapsible=0;dropTarget=0;pointerEvents=0;fillColor=none;points=[[0,0.5],[1,0.5]];portConstraint=eastwest;top=0;left=0;right=0;bottom=1;labelBackgroundColor=none;strokeColor=#0F8B8D;fontColor=#143642;rounded=0;sketch=1;curveFitting=1;jiggle=2;" parent="11U5n9VlO6xv_BTQKGKY-24" vertex="1" visible="0">
          <mxGeometry y="30" width="250" height="30" as="geometry" />
        </mxCell>
        <mxCell id="11U5n9VlO6xv_BTQKGKY-26" value="" style="shape=partialRectangle;overflow=hidden;connectable=0;fillColor=none;top=0;left=0;bottom=0;right=0;fontStyle=1;labelBackgroundColor=none;strokeColor=#0F8B8D;fontColor=#143642;rounded=0;sketch=1;curveFitting=1;jiggle=2;" parent="11U5n9VlO6xv_BTQKGKY-25" vertex="1">
          <mxGeometry width="30" height="30" as="geometry">
            <mxRectangle width="30" height="30" as="alternateBounds" />
          </mxGeometry>
        </mxCell>
        <mxCell id="11U5n9VlO6xv_BTQKGKY-27" value="" style="shape=partialRectangle;overflow=hidden;connectable=0;fillColor=none;top=0;left=0;bottom=0;right=0;align=left;spacingLeft=6;fontStyle=5;labelBackgroundColor=none;strokeColor=#0F8B8D;fontColor=#143642;rounded=0;sketch=1;curveFitting=1;jiggle=2;" parent="11U5n9VlO6xv_BTQKGKY-25" vertex="1">
          <mxGeometry x="30" width="220" height="30" as="geometry">
            <mxRectangle width="220" height="30" as="alternateBounds" />
          </mxGeometry>
        </mxCell>
        <mxCell id="11U5n9VlO6xv_BTQKGKY-29" value="RelationEntity 关系实体" style="shape=table;startSize=30;container=1;collapsible=1;childLayout=tableLayout;fixedRows=1;rowLines=0;fontStyle=1;align=center;resizeLast=1;labelBackgroundColor=none;fillColor=#FAE5C7;strokeColor=#0F8B8D;fontColor=#143642;rounded=0;sketch=1;curveFitting=1;jiggle=2;" parent="1" vertex="1">
          <mxGeometry x="530" y="590" width="170" height="30" as="geometry" />
        </mxCell>
        <mxCell id="11U5n9VlO6xv_BTQKGKY-30" value="" style="shape=partialRectangle;collapsible=0;dropTarget=0;pointerEvents=0;fillColor=none;points=[[0,0.5],[1,0.5]];portConstraint=eastwest;top=0;left=0;right=0;bottom=1;labelBackgroundColor=none;strokeColor=#0F8B8D;fontColor=#143642;rounded=0;sketch=1;curveFitting=1;jiggle=2;" parent="11U5n9VlO6xv_BTQKGKY-29" vertex="1" visible="0">
          <mxGeometry y="30" width="250" height="30" as="geometry" />
        </mxCell>
        <mxCell id="11U5n9VlO6xv_BTQKGKY-31" value="" style="shape=partialRectangle;overflow=hidden;connectable=0;fillColor=none;top=0;left=0;bottom=0;right=0;fontStyle=1;labelBackgroundColor=none;strokeColor=#0F8B8D;fontColor=#143642;rounded=0;sketch=1;curveFitting=1;jiggle=2;" parent="11U5n9VlO6xv_BTQKGKY-30" vertex="1">
          <mxGeometry width="30" height="30" as="geometry">
            <mxRectangle width="30" height="30" as="alternateBounds" />
          </mxGeometry>
        </mxCell>
        <mxCell id="11U5n9VlO6xv_BTQKGKY-32" value="" style="shape=partialRectangle;overflow=hidden;connectable=0;fillColor=none;top=0;left=0;bottom=0;right=0;align=left;spacingLeft=6;fontStyle=5;labelBackgroundColor=none;strokeColor=#0F8B8D;fontColor=#143642;rounded=0;sketch=1;curveFitting=1;jiggle=2;" parent="11U5n9VlO6xv_BTQKGKY-30" vertex="1">
          <mxGeometry x="30" width="220" height="30" as="geometry">
            <mxRectangle width="220" height="30" as="alternateBounds" />
          </mxGeometry>
        </mxCell>
        <mxCell id="11U5n9VlO6xv_BTQKGKY-34" value="ConceptionEntity 概念实体" style="shape=table;startSize=30;container=1;collapsible=1;childLayout=tableLayout;fixedRows=1;rowLines=0;fontStyle=1;align=center;resizeLast=1;labelBackgroundColor=none;fillColor=#FAE5C7;strokeColor=#0F8B8D;fontColor=#143642;rounded=0;sketch=1;curveFitting=1;jiggle=2;" parent="1" vertex="1">
          <mxGeometry x="180" y="576" width="180" height="30" as="geometry" />
        </mxCell>
        <mxCell id="11U5n9VlO6xv_BTQKGKY-35" value="" style="shape=partialRectangle;collapsible=0;dropTarget=0;pointerEvents=0;fillColor=none;points=[[0,0.5],[1,0.5]];portConstraint=eastwest;top=0;left=0;right=0;bottom=1;labelBackgroundColor=none;strokeColor=#0F8B8D;fontColor=#143642;rounded=0;sketch=1;curveFitting=1;jiggle=2;" parent="11U5n9VlO6xv_BTQKGKY-34" vertex="1" visible="0">
          <mxGeometry y="30" width="250" height="30" as="geometry" />
        </mxCell>
        <mxCell id="11U5n9VlO6xv_BTQKGKY-36" value="" style="shape=partialRectangle;overflow=hidden;connectable=0;fillColor=none;top=0;left=0;bottom=0;right=0;fontStyle=1;labelBackgroundColor=none;strokeColor=#0F8B8D;fontColor=#143642;rounded=0;sketch=1;curveFitting=1;jiggle=2;" parent="11U5n9VlO6xv_BTQKGKY-35" vertex="1">
          <mxGeometry width="30" height="30" as="geometry">
            <mxRectangle width="30" height="30" as="alternateBounds" />
          </mxGeometry>
        </mxCell>
        <mxCell id="11U5n9VlO6xv_BTQKGKY-37" value="" style="shape=partialRectangle;overflow=hidden;connectable=0;fillColor=none;top=0;left=0;bottom=0;right=0;align=left;spacingLeft=6;fontStyle=5;labelBackgroundColor=none;strokeColor=#0F8B8D;fontColor=#143642;rounded=0;sketch=1;curveFitting=1;jiggle=2;" parent="11U5n9VlO6xv_BTQKGKY-35" vertex="1">
          <mxGeometry x="30" width="220" height="30" as="geometry">
            <mxRectangle width="220" height="30" as="alternateBounds" />
          </mxGeometry>
        </mxCell>
        <mxCell id="11U5n9VlO6xv_BTQKGKY-38" value="" style="edgeStyle=entityRelationEdgeStyle;fontSize=12;html=1;endArrow=ERmandOne;startArrow=ERmandOne;rounded=0;exitX=1;exitY=0.5;exitDx=0;exitDy=0;entryX=0;entryY=0.25;entryDx=0;entryDy=0;labelBackgroundColor=none;fontColor=default;strokeColor=#A8201A;sketch=1;curveFitting=1;jiggle=2;" parent="1" source="11U5n9VlO6xv_BTQKGKY-24" target="11U5n9VlO6xv_BTQKGKY-29" edge="1">
          <mxGeometry width="100" height="100" relative="1" as="geometry">
            <mxPoint x="370" y="720" as="sourcePoint" />
            <mxPoint x="470" y="620" as="targetPoint" />
          </mxGeometry>
        </mxCell>
        <mxCell id="11U5n9VlO6xv_BTQKGKY-40" value="Relation Source" style="edgeLabel;html=1;align=center;verticalAlign=middle;resizable=0;points=[];labelBackgroundColor=none;fontColor=#143642;rounded=0;sketch=1;curveFitting=1;jiggle=2;" parent="11U5n9VlO6xv_BTQKGKY-38" vertex="1" connectable="0">
          <mxGeometry x="-0.5132" relative="1" as="geometry">
            <mxPoint x="22" y="-15" as="offset" />
          </mxGeometry>
        </mxCell>
        <mxCell id="11U5n9VlO6xv_BTQKGKY-39" value="" style="edgeStyle=entityRelationEdgeStyle;fontSize=12;html=1;endArrow=ERmandOne;startArrow=ERmandOne;rounded=0;exitX=1;exitY=0.5;exitDx=0;exitDy=0;entryX=0;entryY=1;entryDx=0;entryDy=0;labelBackgroundColor=none;fontColor=default;strokeColor=#A8201A;sketch=1;curveFitting=1;jiggle=2;" parent="1" source="11U5n9VlO6xv_BTQKGKY-34" target="11U5n9VlO6xv_BTQKGKY-29" edge="1">
          <mxGeometry width="100" height="100" relative="1" as="geometry">
            <mxPoint x="420" y="780" as="sourcePoint" />
            <mxPoint x="520" y="680" as="targetPoint" />
          </mxGeometry>
        </mxCell>
        <mxCell id="11U5n9VlO6xv_BTQKGKY-41" value="Relation Target" style="edgeLabel;html=1;align=center;verticalAlign=middle;resizable=0;points=[];labelBackgroundColor=none;fontColor=#143642;rounded=0;sketch=1;curveFitting=1;jiggle=2;" parent="11U5n9VlO6xv_BTQKGKY-39" vertex="1" connectable="0">
          <mxGeometry x="-0.4493" y="-3" relative="1" as="geometry">
            <mxPoint x="-5" y="8" as="offset" />
          </mxGeometry>
        </mxCell>
        <mxCell id="11U5n9VlO6xv_BTQKGKY-46" value="Classification分类 " style="shape=table;startSize=30;container=1;collapsible=1;childLayout=tableLayout;fixedRows=1;rowLines=0;fontStyle=1;align=center;resizeLast=1;labelBackgroundColor=none;fillColor=#FAE5C7;strokeColor=#0F8B8D;fontColor=#143642;rounded=0;sketch=1;curveFitting=1;jiggle=2;" parent="1" vertex="1">
          <mxGeometry x="320" y="313" width="140" height="30" as="geometry" />
        </mxCell>
        <mxCell id="11U5n9VlO6xv_BTQKGKY-47" value="" style="shape=partialRectangle;collapsible=0;dropTarget=0;pointerEvents=0;fillColor=none;points=[[0,0.5],[1,0.5]];portConstraint=eastwest;top=0;left=0;right=0;bottom=1;labelBackgroundColor=none;strokeColor=#0F8B8D;fontColor=#143642;rounded=0;sketch=1;curveFitting=1;jiggle=2;" parent="11U5n9VlO6xv_BTQKGKY-46" vertex="1" visible="0">
          <mxGeometry y="30" width="250" height="30" as="geometry" />
        </mxCell>
        <mxCell id="11U5n9VlO6xv_BTQKGKY-48" value="" style="shape=partialRectangle;overflow=hidden;connectable=0;fillColor=none;top=0;left=0;bottom=0;right=0;fontStyle=1;labelBackgroundColor=none;strokeColor=#0F8B8D;fontColor=#143642;rounded=0;sketch=1;curveFitting=1;jiggle=2;" parent="11U5n9VlO6xv_BTQKGKY-47" vertex="1">
          <mxGeometry width="30" height="30" as="geometry">
            <mxRectangle width="30" height="30" as="alternateBounds" />
          </mxGeometry>
        </mxCell>
        <mxCell id="11U5n9VlO6xv_BTQKGKY-49" value="" style="shape=partialRectangle;overflow=hidden;connectable=0;fillColor=none;top=0;left=0;bottom=0;right=0;align=left;spacingLeft=6;fontStyle=5;labelBackgroundColor=none;strokeColor=#0F8B8D;fontColor=#143642;rounded=0;sketch=1;curveFitting=1;jiggle=2;" parent="11U5n9VlO6xv_BTQKGKY-47" vertex="1">
          <mxGeometry x="30" width="220" height="30" as="geometry">
            <mxRectangle width="220" height="30" as="alternateBounds" />
          </mxGeometry>
        </mxCell>
        <mxCell id="11U5n9VlO6xv_BTQKGKY-61" value="GeospatialRegion 地理空间区域" style="shape=table;startSize=30;container=1;collapsible=1;childLayout=tableLayout;fixedRows=1;rowLines=0;fontStyle=1;align=center;resizeLast=1;labelBackgroundColor=none;fillColor=#FAE5C7;strokeColor=#0F8B8D;fontColor=#143642;rounded=0;sketch=1;curveFitting=1;jiggle=2;" parent="1" vertex="1">
          <mxGeometry x="509" y="853" width="211" height="30" as="geometry" />
        </mxCell>
        <mxCell id="11U5n9VlO6xv_BTQKGKY-62" value="" style="shape=partialRectangle;collapsible=0;dropTarget=0;pointerEvents=0;fillColor=none;points=[[0,0.5],[1,0.5]];portConstraint=eastwest;top=0;left=0;right=0;bottom=1;labelBackgroundColor=none;strokeColor=#0F8B8D;fontColor=#143642;rounded=0;sketch=1;curveFitting=1;jiggle=2;" parent="11U5n9VlO6xv_BTQKGKY-61" vertex="1" visible="0">
          <mxGeometry y="30" width="250" height="30" as="geometry" />
        </mxCell>
        <mxCell id="11U5n9VlO6xv_BTQKGKY-63" value="" style="shape=partialRectangle;overflow=hidden;connectable=0;fillColor=none;top=0;left=0;bottom=0;right=0;fontStyle=1;labelBackgroundColor=none;strokeColor=#0F8B8D;fontColor=#143642;rounded=0;sketch=1;curveFitting=1;jiggle=2;" parent="11U5n9VlO6xv_BTQKGKY-62" vertex="1">
          <mxGeometry width="30" height="30" as="geometry">
            <mxRectangle width="30" height="30" as="alternateBounds" />
          </mxGeometry>
        </mxCell>
        <mxCell id="11U5n9VlO6xv_BTQKGKY-64" value="" style="shape=partialRectangle;overflow=hidden;connectable=0;fillColor=none;top=0;left=0;bottom=0;right=0;align=left;spacingLeft=6;fontStyle=5;labelBackgroundColor=none;strokeColor=#0F8B8D;fontColor=#143642;rounded=0;sketch=1;curveFitting=1;jiggle=2;" parent="11U5n9VlO6xv_BTQKGKY-62" vertex="1">
          <mxGeometry x="30" width="220" height="30" as="geometry">
            <mxRectangle width="220" height="30" as="alternateBounds" />
          </mxGeometry>
        </mxCell>
        <mxCell id="11U5n9VlO6xv_BTQKGKY-65" value="TimeFlow 时间流" style="shape=table;startSize=30;container=1;collapsible=1;childLayout=tableLayout;fixedRows=1;rowLines=0;fontStyle=1;align=center;resizeLast=1;labelBackgroundColor=none;fillColor=#FAE5C7;strokeColor=#0F8B8D;fontColor=#143642;rounded=0;sketch=1;curveFitting=1;jiggle=2;" parent="1" vertex="1">
          <mxGeometry x="130" y="853" width="140" height="30" as="geometry" />
        </mxCell>
        <mxCell id="11U5n9VlO6xv_BTQKGKY-66" value="" style="shape=partialRectangle;collapsible=0;dropTarget=0;pointerEvents=0;fillColor=none;points=[[0,0.5],[1,0.5]];portConstraint=eastwest;top=0;left=0;right=0;bottom=1;labelBackgroundColor=none;strokeColor=#0F8B8D;fontColor=#143642;rounded=0;sketch=1;curveFitting=1;jiggle=2;" parent="11U5n9VlO6xv_BTQKGKY-65" vertex="1" visible="0">
          <mxGeometry y="30" width="250" height="30" as="geometry" />
        </mxCell>
        <mxCell id="11U5n9VlO6xv_BTQKGKY-67" value="" style="shape=partialRectangle;overflow=hidden;connectable=0;fillColor=none;top=0;left=0;bottom=0;right=0;fontStyle=1;labelBackgroundColor=none;strokeColor=#0F8B8D;fontColor=#143642;rounded=0;sketch=1;curveFitting=1;jiggle=2;" parent="11U5n9VlO6xv_BTQKGKY-66" vertex="1">
          <mxGeometry width="30" height="30" as="geometry">
            <mxRectangle width="30" height="30" as="alternateBounds" />
          </mxGeometry>
        </mxCell>
        <mxCell id="11U5n9VlO6xv_BTQKGKY-68" value="" style="shape=partialRectangle;overflow=hidden;connectable=0;fillColor=none;top=0;left=0;bottom=0;right=0;align=left;spacingLeft=6;fontStyle=5;labelBackgroundColor=none;strokeColor=#0F8B8D;fontColor=#143642;rounded=0;sketch=1;curveFitting=1;jiggle=2;" parent="11U5n9VlO6xv_BTQKGKY-66" vertex="1">
          <mxGeometry x="30" width="220" height="30" as="geometry">
            <mxRectangle width="220" height="30" as="alternateBounds" />
          </mxGeometry>
        </mxCell>
        <mxCell id="11U5n9VlO6xv_BTQKGKY-69" value="TimeScaleEntity 时间刻度实体" style="shape=table;startSize=30;container=1;collapsible=1;childLayout=tableLayout;fixedRows=1;rowLines=0;fontStyle=1;align=center;resizeLast=1;labelBackgroundColor=none;fillColor=#FAE5C7;strokeColor=#0F8B8D;fontColor=#143642;rounded=0;sketch=1;curveFitting=1;jiggle=2;" parent="1" vertex="1">
          <mxGeometry x="110" y="786" width="220" height="30" as="geometry" />
        </mxCell>
        <mxCell id="11U5n9VlO6xv_BTQKGKY-70" value="" style="shape=partialRectangle;collapsible=0;dropTarget=0;pointerEvents=0;fillColor=none;points=[[0,0.5],[1,0.5]];portConstraint=eastwest;top=0;left=0;right=0;bottom=1;labelBackgroundColor=none;strokeColor=#0F8B8D;fontColor=#143642;rounded=0;sketch=1;curveFitting=1;jiggle=2;" parent="11U5n9VlO6xv_BTQKGKY-69" vertex="1" visible="0">
          <mxGeometry y="30" width="250" height="30" as="geometry" />
        </mxCell>
        <mxCell id="11U5n9VlO6xv_BTQKGKY-71" value="" style="shape=partialRectangle;overflow=hidden;connectable=0;fillColor=none;top=0;left=0;bottom=0;right=0;fontStyle=1;labelBackgroundColor=none;strokeColor=#0F8B8D;fontColor=#143642;rounded=0;sketch=1;curveFitting=1;jiggle=2;" parent="11U5n9VlO6xv_BTQKGKY-70" vertex="1">
          <mxGeometry width="30" height="30" as="geometry">
            <mxRectangle width="30" height="30" as="alternateBounds" />
          </mxGeometry>
        </mxCell>
        <mxCell id="11U5n9VlO6xv_BTQKGKY-72" value="" style="shape=partialRectangle;overflow=hidden;connectable=0;fillColor=none;top=0;left=0;bottom=0;right=0;align=left;spacingLeft=6;fontStyle=5;labelBackgroundColor=none;strokeColor=#0F8B8D;fontColor=#143642;rounded=0;sketch=1;curveFitting=1;jiggle=2;" parent="11U5n9VlO6xv_BTQKGKY-70" vertex="1">
          <mxGeometry x="30" width="220" height="30" as="geometry">
            <mxRectangle width="220" height="30" as="alternateBounds" />
          </mxGeometry>
        </mxCell>
        <mxCell id="11U5n9VlO6xv_BTQKGKY-74" value="GeospatialScaleEntity 地理空间粒度实体" style="shape=table;startSize=30;container=1;collapsible=1;childLayout=tableLayout;fixedRows=1;rowLines=0;fontStyle=1;align=center;resizeLast=1;labelBackgroundColor=none;fillColor=#FAE5C7;strokeColor=#0F8B8D;fontColor=#143642;rounded=0;sketch=1;curveFitting=1;jiggle=2;" parent="1" vertex="1">
          <mxGeometry x="443" y="786" width="270" height="30" as="geometry" />
        </mxCell>
        <mxCell id="11U5n9VlO6xv_BTQKGKY-75" value="" style="shape=partialRectangle;collapsible=0;dropTarget=0;pointerEvents=0;fillColor=none;points=[[0,0.5],[1,0.5]];portConstraint=eastwest;top=0;left=0;right=0;bottom=1;labelBackgroundColor=none;strokeColor=#0F8B8D;fontColor=#143642;rounded=0;sketch=1;curveFitting=1;jiggle=2;" parent="11U5n9VlO6xv_BTQKGKY-74" vertex="1" visible="0">
          <mxGeometry y="30" width="250" height="30" as="geometry" />
        </mxCell>
        <mxCell id="11U5n9VlO6xv_BTQKGKY-76" value="" style="shape=partialRectangle;overflow=hidden;connectable=0;fillColor=none;top=0;left=0;bottom=0;right=0;fontStyle=1;labelBackgroundColor=none;strokeColor=#0F8B8D;fontColor=#143642;rounded=0;sketch=1;curveFitting=1;jiggle=2;" parent="11U5n9VlO6xv_BTQKGKY-75" vertex="1">
          <mxGeometry width="30" height="30" as="geometry">
            <mxRectangle width="30" height="30" as="alternateBounds" />
          </mxGeometry>
        </mxCell>
        <mxCell id="11U5n9VlO6xv_BTQKGKY-77" value="" style="shape=partialRectangle;overflow=hidden;connectable=0;fillColor=none;top=0;left=0;bottom=0;right=0;align=left;spacingLeft=6;fontStyle=5;labelBackgroundColor=none;strokeColor=#0F8B8D;fontColor=#143642;rounded=0;sketch=1;curveFitting=1;jiggle=2;" parent="11U5n9VlO6xv_BTQKGKY-75" vertex="1">
          <mxGeometry x="30" width="220" height="30" as="geometry">
            <mxRectangle width="220" height="30" as="alternateBounds" />
          </mxGeometry>
        </mxCell>
        <mxCell id="11U5n9VlO6xv_BTQKGKY-81" value="TimeScaleEvent 时间刻度事件" style="shape=table;startSize=30;container=1;collapsible=1;childLayout=tableLayout;fixedRows=1;rowLines=0;fontStyle=1;align=center;resizeLast=1;labelBackgroundColor=none;fillColor=#FAE5C7;strokeColor=#0F8B8D;fontColor=#143642;rounded=0;sketch=1;curveFitting=1;jiggle=2;" parent="1" vertex="1">
          <mxGeometry x="103" y="665" width="240" height="30" as="geometry" />
        </mxCell>
        <mxCell id="11U5n9VlO6xv_BTQKGKY-82" value="" style="shape=partialRectangle;collapsible=0;dropTarget=0;pointerEvents=0;fillColor=none;points=[[0,0.5],[1,0.5]];portConstraint=eastwest;top=0;left=0;right=0;bottom=1;labelBackgroundColor=none;strokeColor=#0F8B8D;fontColor=#143642;rounded=0;sketch=1;curveFitting=1;jiggle=2;" parent="11U5n9VlO6xv_BTQKGKY-81" vertex="1" visible="0">
          <mxGeometry y="30" width="250" height="30" as="geometry" />
        </mxCell>
        <mxCell id="11U5n9VlO6xv_BTQKGKY-83" value="" style="shape=partialRectangle;overflow=hidden;connectable=0;fillColor=none;top=0;left=0;bottom=0;right=0;fontStyle=1;labelBackgroundColor=none;strokeColor=#0F8B8D;fontColor=#143642;rounded=0;sketch=1;curveFitting=1;jiggle=2;" parent="11U5n9VlO6xv_BTQKGKY-82" vertex="1">
          <mxGeometry width="30" height="30" as="geometry">
            <mxRectangle width="30" height="30" as="alternateBounds" />
          </mxGeometry>
        </mxCell>
        <mxCell id="11U5n9VlO6xv_BTQKGKY-84" value="" style="shape=partialRectangle;overflow=hidden;connectable=0;fillColor=none;top=0;left=0;bottom=0;right=0;align=left;spacingLeft=6;fontStyle=5;labelBackgroundColor=none;strokeColor=#0F8B8D;fontColor=#143642;rounded=0;sketch=1;curveFitting=1;jiggle=2;" parent="11U5n9VlO6xv_BTQKGKY-82" vertex="1">
          <mxGeometry x="30" width="220" height="30" as="geometry">
            <mxRectangle width="220" height="30" as="alternateBounds" />
          </mxGeometry>
        </mxCell>
        <mxCell id="11U5n9VlO6xv_BTQKGKY-85" value="GeospatialScaleEvent 地理空间刻度事件" style="shape=table;startSize=30;container=1;collapsible=1;childLayout=tableLayout;fixedRows=1;rowLines=0;fontStyle=1;align=center;resizeLast=1;labelBackgroundColor=none;fillColor=#FAE5C7;strokeColor=#0F8B8D;fontColor=#143642;rounded=0;sketch=1;curveFitting=1;jiggle=2;" parent="1" vertex="1">
          <mxGeometry x="454" y="665" width="256" height="30" as="geometry" />
        </mxCell>
        <mxCell id="11U5n9VlO6xv_BTQKGKY-86" value="" style="shape=partialRectangle;collapsible=0;dropTarget=0;pointerEvents=0;fillColor=none;points=[[0,0.5],[1,0.5]];portConstraint=eastwest;top=0;left=0;right=0;bottom=1;labelBackgroundColor=none;strokeColor=#0F8B8D;fontColor=#143642;rounded=0;sketch=1;curveFitting=1;jiggle=2;" parent="11U5n9VlO6xv_BTQKGKY-85" vertex="1" visible="0">
          <mxGeometry y="30" width="250" height="30" as="geometry" />
        </mxCell>
        <mxCell id="11U5n9VlO6xv_BTQKGKY-87" value="" style="shape=partialRectangle;overflow=hidden;connectable=0;fillColor=none;top=0;left=0;bottom=0;right=0;fontStyle=1;labelBackgroundColor=none;strokeColor=#0F8B8D;fontColor=#143642;rounded=0;sketch=1;curveFitting=1;jiggle=2;" parent="11U5n9VlO6xv_BTQKGKY-86" vertex="1">
          <mxGeometry width="30" height="30" as="geometry">
            <mxRectangle width="30" height="30" as="alternateBounds" />
          </mxGeometry>
        </mxCell>
        <mxCell id="11U5n9VlO6xv_BTQKGKY-88" value="" style="shape=partialRectangle;overflow=hidden;connectable=0;fillColor=none;top=0;left=0;bottom=0;right=0;align=left;spacingLeft=6;fontStyle=5;labelBackgroundColor=none;strokeColor=#0F8B8D;fontColor=#143642;rounded=0;sketch=1;curveFitting=1;jiggle=2;" parent="11U5n9VlO6xv_BTQKGKY-86" vertex="1">
          <mxGeometry x="30" width="220" height="30" as="geometry">
            <mxRectangle width="220" height="30" as="alternateBounds" />
          </mxGeometry>
        </mxCell>
        <mxCell id="11U5n9VlO6xv_BTQKGKY-91" value="" style="fontSize=12;html=1;endArrow=ERzeroToMany;startArrow=ERmandOne;rounded=0;entryX=0.629;entryY=-0.095;entryDx=0;entryDy=0;entryPerimeter=0;labelBackgroundColor=none;fontColor=default;strokeColor=#A8201A;sketch=1;curveFitting=1;jiggle=2;" parent="1" target="11U5n9VlO6xv_BTQKGKY-81" edge="1">
          <mxGeometry width="100" height="100" relative="1" as="geometry">
            <mxPoint x="260" y="610" as="sourcePoint" />
            <mxPoint x="470" y="500" as="targetPoint" />
          </mxGeometry>
        </mxCell>
        <mxCell id="11U5n9VlO6xv_BTQKGKY-92" value="" style="fontSize=12;html=1;endArrow=ERzeroToMany;startArrow=ERmandOne;rounded=0;entryX=0.5;entryY=0;entryDx=0;entryDy=0;exitX=0.75;exitY=1;exitDx=0;exitDy=0;labelBackgroundColor=none;fontColor=default;strokeColor=#A8201A;sketch=1;curveFitting=1;jiggle=2;" parent="1" source="11U5n9VlO6xv_BTQKGKY-34" target="11U5n9VlO6xv_BTQKGKY-85" edge="1">
          <mxGeometry width="100" height="100" relative="1" as="geometry">
            <mxPoint x="390.04" y="630" as="sourcePoint" />
            <mxPoint x="390.00000000000006" y="725.1500000000001" as="targetPoint" />
            <Array as="points">
              <mxPoint x="500" y="640" />
            </Array>
          </mxGeometry>
        </mxCell>
        <mxCell id="11U5n9VlO6xv_BTQKGKY-94" value="1" style="text;html=1;strokeColor=none;fillColor=none;align=center;verticalAlign=middle;whiteSpace=wrap;rounded=0;labelBackgroundColor=none;fontColor=#143642;sketch=1;curveFitting=1;jiggle=2;" parent="1" vertex="1">
          <mxGeometry x="140" y="764" width="60" height="30" as="geometry" />
        </mxCell>
        <mxCell id="11U5n9VlO6xv_BTQKGKY-95" value="1" style="text;html=1;strokeColor=none;fillColor=none;align=center;verticalAlign=middle;whiteSpace=wrap;rounded=0;labelBackgroundColor=none;fontColor=#143642;sketch=1;curveFitting=1;jiggle=2;" parent="1" vertex="1">
          <mxGeometry x="489" y="763" width="60" height="30" as="geometry" />
        </mxCell>
        <mxCell id="11U5n9VlO6xv_BTQKGKY-99" value="n optional" style="text;html=1;strokeColor=none;fillColor=none;align=center;verticalAlign=middle;whiteSpace=wrap;rounded=0;labelBackgroundColor=none;fontColor=#143642;sketch=1;curveFitting=1;jiggle=2;" parent="1" vertex="1">
          <mxGeometry x="512" y="695" width="60" height="30" as="geometry" />
        </mxCell>
        <mxCell id="11U5n9VlO6xv_BTQKGKY-102" value="1" style="text;html=1;strokeColor=none;fillColor=none;align=center;verticalAlign=middle;whiteSpace=wrap;rounded=0;labelBackgroundColor=none;fontColor=#143642;sketch=1;curveFitting=1;jiggle=2;" parent="1" vertex="1">
          <mxGeometry x="299" y="604" width="60" height="30" as="geometry" />
        </mxCell>
        <mxCell id="11U5n9VlO6xv_BTQKGKY-103" value="1" style="text;html=1;strokeColor=none;fillColor=none;align=center;verticalAlign=middle;whiteSpace=wrap;rounded=0;labelBackgroundColor=none;fontColor=#143642;sketch=1;curveFitting=1;jiggle=2;" parent="1" vertex="1">
          <mxGeometry x="218" y="600" width="60" height="30" as="geometry" />
        </mxCell>
        <mxCell id="11U5n9VlO6xv_BTQKGKY-104" value="n optional" style="text;html=1;strokeColor=none;fillColor=none;align=center;verticalAlign=middle;whiteSpace=wrap;rounded=0;labelBackgroundColor=none;fontColor=#143642;sketch=1;curveFitting=1;jiggle=2;" parent="1" vertex="1">
          <mxGeometry x="198" y="635" width="60" height="30" as="geometry" />
        </mxCell>
        <mxCell id="11U5n9VlO6xv_BTQKGKY-105" value="n optional" style="text;html=1;strokeColor=none;fillColor=none;align=center;verticalAlign=middle;whiteSpace=wrap;rounded=0;labelBackgroundColor=none;fontColor=#143642;sketch=1;curveFitting=1;jiggle=2;" parent="1" vertex="1">
          <mxGeometry x="564" y="637" width="60" height="30" as="geometry" />
        </mxCell>
        <mxCell id="11U5n9VlO6xv_BTQKGKY-107" value="1" style="text;html=1;strokeColor=none;fillColor=none;align=center;verticalAlign=middle;whiteSpace=wrap;rounded=0;labelBackgroundColor=none;fontColor=#143642;sketch=1;curveFitting=1;jiggle=2;" parent="1" vertex="1">
          <mxGeometry x="343" y="563" width="60" height="30" as="geometry" />
        </mxCell>
        <mxCell id="11U5n9VlO6xv_BTQKGKY-108" value="1" style="text;html=1;strokeColor=none;fillColor=none;align=center;verticalAlign=middle;whiteSpace=wrap;rounded=0;labelBackgroundColor=none;fontColor=#143642;sketch=1;curveFitting=1;jiggle=2;" parent="1" vertex="1">
          <mxGeometry x="485" y="575" width="60" height="30" as="geometry" />
        </mxCell>
        <mxCell id="11U5n9VlO6xv_BTQKGKY-109" value="1" style="text;html=1;strokeColor=none;fillColor=none;align=center;verticalAlign=middle;whiteSpace=wrap;rounded=0;labelBackgroundColor=none;fontColor=#143642;sketch=1;curveFitting=1;jiggle=2;" parent="1" vertex="1">
          <mxGeometry x="485" y="599" width="60" height="30" as="geometry" />
        </mxCell>
        <mxCell id="11U5n9VlO6xv_BTQKGKY-110" value="1" style="text;html=1;strokeColor=none;fillColor=none;align=center;verticalAlign=middle;whiteSpace=wrap;rounded=0;labelBackgroundColor=none;fontColor=#143642;sketch=1;curveFitting=1;jiggle=2;" parent="1" vertex="1">
          <mxGeometry x="342" y="512" width="60" height="30" as="geometry" />
        </mxCell>
        <mxCell id="11U5n9VlO6xv_BTQKGKY-111" value="many" style="text;html=1;strokeColor=none;fillColor=none;align=center;verticalAlign=middle;whiteSpace=wrap;rounded=0;labelBackgroundColor=none;fontColor=#143642;sketch=1;curveFitting=1;jiggle=2;" parent="1" vertex="1">
          <mxGeometry x="708" y="581" width="60" height="30" as="geometry" />
        </mxCell>
        <mxCell id="11U5n9VlO6xv_BTQKGKY-112" value="many" style="text;html=1;strokeColor=none;fillColor=none;align=center;verticalAlign=middle;whiteSpace=wrap;rounded=0;labelBackgroundColor=none;fontColor=#143642;sketch=1;curveFitting=1;jiggle=2;" parent="1" vertex="1">
          <mxGeometry x="225" y="496" width="60" height="30" as="geometry" />
        </mxCell>
        <mxCell id="11U5n9VlO6xv_BTQKGKY-114" value="" style="fontSize=12;html=1;endArrow=ERzeroToMany;startArrow=ERmandOne;rounded=0;labelBackgroundColor=none;fontColor=default;strokeColor=#A8201A;sketch=1;curveFitting=1;jiggle=2;" parent="1" edge="1">
          <mxGeometry width="100" height="100" relative="1" as="geometry">
            <mxPoint x="510" y="786" as="sourcePoint" />
            <mxPoint x="510" y="695" as="targetPoint" />
          </mxGeometry>
        </mxCell>
        <mxCell id="11U5n9VlO6xv_BTQKGKY-115" value="" style="fontSize=12;html=1;endArrow=ERzeroToMany;startArrow=ERmandOne;rounded=0;labelBackgroundColor=none;fontColor=default;strokeColor=#A8201A;sketch=1;curveFitting=1;jiggle=2;" parent="1" edge="1">
          <mxGeometry width="100" height="100" relative="1" as="geometry">
            <mxPoint x="179" y="786" as="sourcePoint" />
            <mxPoint x="179" y="695" as="targetPoint" />
          </mxGeometry>
        </mxCell>
        <mxCell id="11U5n9VlO6xv_BTQKGKY-116" value="n optional" style="text;html=1;strokeColor=none;fillColor=none;align=center;verticalAlign=middle;whiteSpace=wrap;rounded=0;labelBackgroundColor=none;fontColor=#143642;sketch=1;curveFitting=1;jiggle=2;" parent="1" vertex="1">
          <mxGeometry x="118" y="692" width="60" height="30" as="geometry" />
        </mxCell>
        <mxCell id="11U5n9VlO6xv_BTQKGKY-117" value="" style="fontSize=12;html=1;endArrow=ERoneToMany;rounded=0;entryX=0.405;entryY=0.933;entryDx=0;entryDy=0;entryPerimeter=0;labelBackgroundColor=none;fontColor=default;strokeColor=#A8201A;sketch=1;curveFitting=1;jiggle=2;" parent="1" edge="1">
          <mxGeometry width="100" height="100" relative="1" as="geometry">
            <mxPoint x="196" y="853" as="sourcePoint" />
            <mxPoint x="196.4000000000001" y="816.99" as="targetPoint" />
          </mxGeometry>
        </mxCell>
        <mxCell id="11U5n9VlO6xv_BTQKGKY-118" value="" style="fontSize=12;html=1;endArrow=ERoneToMany;rounded=0;entryX=0.405;entryY=0.933;entryDx=0;entryDy=0;entryPerimeter=0;labelBackgroundColor=none;fontColor=default;strokeColor=#A8201A;sketch=1;curveFitting=1;jiggle=2;" parent="1" edge="1">
          <mxGeometry width="100" height="100" relative="1" as="geometry">
            <mxPoint x="600" y="853" as="sourcePoint" />
            <mxPoint x="600.4000000000001" y="816.99" as="targetPoint" />
          </mxGeometry>
        </mxCell>
        <mxCell id="11U5n9VlO6xv_BTQKGKY-119" value="1" style="text;html=1;strokeColor=none;fillColor=none;align=center;verticalAlign=middle;whiteSpace=wrap;rounded=0;labelBackgroundColor=none;fontColor=#143642;sketch=1;curveFitting=1;jiggle=2;" parent="1" vertex="1">
          <mxGeometry x="142" y="474" width="60" height="30" as="geometry" />
        </mxCell>
        <mxCell id="11U5n9VlO6xv_BTQKGKY-121" value="1" style="text;html=1;strokeColor=none;fillColor=none;align=center;verticalAlign=middle;whiteSpace=wrap;rounded=0;labelBackgroundColor=none;fontColor=#143642;sketch=1;curveFitting=1;jiggle=2;" parent="1" vertex="1">
          <mxGeometry x="718" y="475" width="60" height="30" as="geometry" />
        </mxCell>
        <mxCell id="11U5n9VlO6xv_BTQKGKY-122" value="1" style="text;html=1;strokeColor=none;fillColor=none;align=center;verticalAlign=middle;whiteSpace=wrap;rounded=0;labelBackgroundColor=none;fontColor=#143642;sketch=1;curveFitting=1;jiggle=2;" parent="1" vertex="1">
          <mxGeometry x="287" y="458" width="60" height="30" as="geometry" />
        </mxCell>
        <mxCell id="11U5n9VlO6xv_BTQKGKY-123" value="1" style="text;html=1;strokeColor=none;fillColor=none;align=center;verticalAlign=middle;whiteSpace=wrap;rounded=0;labelBackgroundColor=none;fontColor=#143642;sketch=1;curveFitting=1;jiggle=2;" parent="1" vertex="1">
          <mxGeometry x="592" y="459" width="60" height="30" as="geometry" />
        </mxCell>
        <mxCell id="11U5n9VlO6xv_BTQKGKY-124" value="n optional" style="text;html=1;strokeColor=none;fillColor=none;align=center;verticalAlign=middle;whiteSpace=wrap;rounded=0;labelBackgroundColor=none;fontColor=#143642;sketch=1;curveFitting=1;jiggle=2;" parent="1" vertex="1">
          <mxGeometry x="296" y="395" width="60" height="30" as="geometry" />
        </mxCell>
        <mxCell id="11U5n9VlO6xv_BTQKGKY-126" value="n optional" style="text;html=1;strokeColor=none;fillColor=none;align=center;verticalAlign=middle;whiteSpace=wrap;rounded=0;labelBackgroundColor=none;fontColor=#143642;sketch=1;curveFitting=1;jiggle=2;" parent="1" vertex="1">
          <mxGeometry x="583" y="394" width="60" height="30" as="geometry" />
        </mxCell>
        <mxCell id="11U5n9VlO6xv_BTQKGKY-127" value="1" style="text;html=1;strokeColor=none;fillColor=none;align=center;verticalAlign=middle;whiteSpace=wrap;rounded=0;labelBackgroundColor=none;fontColor=#143642;sketch=1;curveFitting=1;jiggle=2;" parent="1" vertex="1">
          <mxGeometry x="577" y="831" width="60" height="30" as="geometry" />
        </mxCell>
        <mxCell id="11U5n9VlO6xv_BTQKGKY-128" value="1" style="text;html=1;strokeColor=none;fillColor=none;align=center;verticalAlign=middle;whiteSpace=wrap;rounded=0;labelBackgroundColor=none;fontColor=#143642;sketch=1;curveFitting=1;jiggle=2;" parent="1" vertex="1">
          <mxGeometry x="173" y="831" width="60" height="30" as="geometry" />
        </mxCell>
        <mxCell id="11U5n9VlO6xv_BTQKGKY-129" value="many" style="text;html=1;strokeColor=none;fillColor=none;align=center;verticalAlign=middle;whiteSpace=wrap;rounded=0;labelBackgroundColor=none;fontColor=#143642;sketch=1;curveFitting=1;jiggle=2;" parent="1" vertex="1">
          <mxGeometry x="187" y="808" width="60" height="30" as="geometry" />
        </mxCell>
        <mxCell id="11U5n9VlO6xv_BTQKGKY-130" value="many" style="text;html=1;strokeColor=none;fillColor=none;align=center;verticalAlign=middle;whiteSpace=wrap;rounded=0;labelBackgroundColor=none;fontColor=#143642;sketch=1;curveFitting=1;jiggle=2;" parent="1" vertex="1">
          <mxGeometry x="593" y="808" width="60" height="30" as="geometry" />
        </mxCell>
        <mxCell id="11U5n9VlO6xv_BTQKGKY-131" value="" style="fontSize=12;html=1;endArrow=ERzeroToMany;startArrow=ERzeroToOne;rounded=0;exitX=0.75;exitY=0;exitDx=0;exitDy=0;edgeStyle=orthogonalEdgeStyle;labelBackgroundColor=none;fontColor=default;strokeColor=#A8201A;sketch=1;curveFitting=1;jiggle=2;" parent="1" source="11U5n9VlO6xv_BTQKGKY-46" edge="1">
          <mxGeometry width="100" height="100" relative="1" as="geometry">
            <mxPoint x="512" y="300" as="sourcePoint" />
            <mxPoint x="390" y="313" as="targetPoint" />
            <Array as="points">
              <mxPoint x="425" y="280" />
              <mxPoint x="390" y="280" />
            </Array>
          </mxGeometry>
        </mxCell>
        <mxCell id="11U5n9VlO6xv_BTQKGKY-132" value="1 optional" style="text;html=1;strokeColor=none;fillColor=none;align=center;verticalAlign=middle;whiteSpace=wrap;rounded=0;labelBackgroundColor=none;fontColor=#143642;sketch=1;curveFitting=1;jiggle=2;" parent="1" vertex="1">
          <mxGeometry x="438" y="287" width="60" height="30" as="geometry" />
        </mxCell>
        <mxCell id="11U5n9VlO6xv_BTQKGKY-133" value="many optional" style="text;html=1;strokeColor=none;fillColor=none;align=center;verticalAlign=middle;whiteSpace=wrap;rounded=0;labelBackgroundColor=none;fontColor=#143642;sketch=1;curveFitting=1;jiggle=2;" parent="1" vertex="1">
          <mxGeometry x="299" y="286" width="87" height="30" as="geometry" />
        </mxCell>
        <mxCell id="11U5n9VlO6xv_BTQKGKY-134" value="" style="fontSize=12;html=1;endArrow=ERzeroToMany;startArrow=ERzeroToOne;rounded=0;exitX=0.75;exitY=0;exitDx=0;exitDy=0;edgeStyle=orthogonalEdgeStyle;labelBackgroundColor=none;fontColor=default;strokeColor=#A8201A;sketch=1;curveFitting=1;jiggle=2;" parent="1" edge="1">
          <mxGeometry width="100" height="100" relative="1" as="geometry">
            <mxPoint x="312.5" y="786" as="sourcePoint" />
            <mxPoint x="270" y="786" as="targetPoint" />
            <Array as="points">
              <mxPoint x="313" y="753" />
              <mxPoint x="270" y="753" />
            </Array>
          </mxGeometry>
        </mxCell>
        <mxCell id="11U5n9VlO6xv_BTQKGKY-135" value="1 optional" style="text;html=1;strokeColor=none;fillColor=none;align=center;verticalAlign=middle;whiteSpace=wrap;rounded=0;labelBackgroundColor=none;fontColor=#143642;sketch=1;curveFitting=1;jiggle=2;" parent="1" vertex="1">
          <mxGeometry x="314" y="758" width="60" height="30" as="geometry" />
        </mxCell>
        <mxCell id="11U5n9VlO6xv_BTQKGKY-137" value="many optional" style="text;html=1;strokeColor=none;fillColor=none;align=center;verticalAlign=middle;whiteSpace=wrap;rounded=0;labelBackgroundColor=none;fontColor=#143642;sketch=1;curveFitting=1;jiggle=2;" parent="1" vertex="1">
          <mxGeometry x="185" y="759" width="87" height="30" as="geometry" />
        </mxCell>
        <mxCell id="11U5n9VlO6xv_BTQKGKY-138" value="" style="fontSize=12;html=1;endArrow=ERzeroToMany;startArrow=ERzeroToOne;rounded=0;exitX=0.75;exitY=0;exitDx=0;exitDy=0;edgeStyle=orthogonalEdgeStyle;labelBackgroundColor=none;fontColor=default;strokeColor=#A8201A;sketch=1;curveFitting=1;jiggle=2;" parent="1" edge="1">
          <mxGeometry width="100" height="100" relative="1" as="geometry">
            <mxPoint x="656.5" y="785" as="sourcePoint" />
            <mxPoint x="614" y="785" as="targetPoint" />
            <Array as="points">
              <mxPoint x="657" y="752" />
              <mxPoint x="614" y="752" />
            </Array>
          </mxGeometry>
        </mxCell>
        <mxCell id="11U5n9VlO6xv_BTQKGKY-139" value="many optional" style="text;html=1;strokeColor=none;fillColor=none;align=center;verticalAlign=middle;whiteSpace=wrap;rounded=0;labelBackgroundColor=none;fontColor=#143642;sketch=1;curveFitting=1;jiggle=2;" parent="1" vertex="1">
          <mxGeometry x="528" y="760" width="87" height="30" as="geometry" />
        </mxCell>
        <mxCell id="11U5n9VlO6xv_BTQKGKY-140" value="1 optional" style="text;html=1;strokeColor=none;fillColor=none;align=center;verticalAlign=middle;whiteSpace=wrap;rounded=0;labelBackgroundColor=none;fontColor=#143642;sketch=1;curveFitting=1;jiggle=2;" parent="1" vertex="1">
          <mxGeometry x="660" y="760" width="60" height="30" as="geometry" />
        </mxCell>
        <mxCell id="11U5n9VlO6xv_BTQKGKY-141" value="" style="edgeStyle=orthogonalEdgeStyle;fontSize=12;html=1;endArrow=ERzeroToMany;endFill=1;startArrow=ERzeroToMany;rounded=0;labelBackgroundColor=none;fontColor=default;strokeColor=#A8201A;entryX=0;entryY=0.5;entryDx=0;entryDy=0;sketch=1;curveFitting=1;jiggle=2;" parent="1" target="11U5n9VlO6xv_BTQKGKY-46" edge="1">
          <mxGeometry width="100" height="100" relative="1" as="geometry">
            <mxPoint x="200" y="610" as="sourcePoint" />
            <mxPoint x="250" y="280" as="targetPoint" />
            <Array as="points">
              <mxPoint x="200" y="630" />
              <mxPoint x="80" y="630" />
              <mxPoint x="80" y="328" />
            </Array>
          </mxGeometry>
        </mxCell>
        <mxCell id="11U5n9VlO6xv_BTQKGKY-142" value="many optional" style="text;html=1;strokeColor=none;fillColor=none;align=center;verticalAlign=middle;whiteSpace=wrap;rounded=0;labelBackgroundColor=none;fontColor=#143642;sketch=1;curveFitting=1;jiggle=2;" parent="1" vertex="1">
          <mxGeometry x="218" y="324" width="87" height="30" as="geometry" />
        </mxCell>
        <mxCell id="11U5n9VlO6xv_BTQKGKY-143" value="many optional" style="text;html=1;strokeColor=none;fillColor=none;align=center;verticalAlign=middle;whiteSpace=wrap;rounded=0;labelBackgroundColor=none;fontColor=#143642;sketch=1;curveFitting=1;jiggle=2;" parent="1" vertex="1">
          <mxGeometry x="110" y="604" width="87" height="30" as="geometry" />
        </mxCell>
        <mxCell id="11U5n9VlO6xv_BTQKGKY-144" value="" style="edgeStyle=orthogonalEdgeStyle;fontSize=12;html=1;endArrow=ERzeroToMany;endFill=1;startArrow=ERzeroToMany;rounded=0;exitX=1;exitY=0.5;exitDx=0;exitDy=0;labelBackgroundColor=none;fontColor=default;strokeColor=#A8201A;sketch=1;curveFitting=1;jiggle=2;" parent="1" source="11U5n9VlO6xv_BTQKGKY-46" edge="1">
          <mxGeometry width="100" height="100" relative="1" as="geometry">
            <mxPoint x="613" y="330" as="sourcePoint" />
            <mxPoint x="708" y="450" as="targetPoint" />
          </mxGeometry>
        </mxCell>
        <mxCell id="11U5n9VlO6xv_BTQKGKY-145" value="many optional" style="text;html=1;strokeColor=none;fillColor=none;align=center;verticalAlign=middle;whiteSpace=wrap;rounded=0;labelBackgroundColor=none;fontColor=#143642;sketch=1;curveFitting=1;jiggle=2;" parent="1" vertex="1">
          <mxGeometry x="463" y="324" width="87" height="30" as="geometry" />
        </mxCell>
        <mxCell id="11U5n9VlO6xv_BTQKGKY-146" value="many optional" style="text;html=1;strokeColor=none;fillColor=none;align=center;verticalAlign=middle;whiteSpace=wrap;rounded=0;labelBackgroundColor=none;fontColor=#143642;sketch=1;curveFitting=1;jiggle=2;" parent="1" vertex="1">
          <mxGeometry x="713" y="424" width="87" height="30" as="geometry" />
        </mxCell>
        <mxCell id="11U5n9VlO6xv_BTQKGKY-147" value="" style="edgeStyle=orthogonalEdgeStyle;fontSize=12;html=1;endArrow=ERzeroToMany;endFill=1;startArrow=ERzeroToMany;rounded=0;entryX=0.36;entryY=1.043;entryDx=0;entryDy=0;entryPerimeter=0;labelBackgroundColor=none;fontColor=default;strokeColor=#A8201A;sketch=1;curveFitting=1;jiggle=2;" parent="1" target="11U5n9VlO6xv_BTQKGKY-46" edge="1">
          <mxGeometry width="100" height="100" relative="1" as="geometry">
            <mxPoint x="201" y="450" as="sourcePoint" />
            <mxPoint x="390" y="350" as="targetPoint" />
            <Array as="points">
              <mxPoint x="201" y="380" />
              <mxPoint x="370" y="380" />
            </Array>
          </mxGeometry>
        </mxCell>
        <mxCell id="11U5n9VlO6xv_BTQKGKY-148" value="many optional" style="text;html=1;strokeColor=none;fillColor=none;align=center;verticalAlign=middle;whiteSpace=wrap;rounded=0;labelBackgroundColor=none;fontColor=#143642;sketch=1;curveFitting=1;jiggle=2;" parent="1" vertex="1">
          <mxGeometry x="367" y="354" width="87" height="30" as="geometry" />
        </mxCell>
        <mxCell id="11U5n9VlO6xv_BTQKGKY-149" value="many optional" style="text;html=1;strokeColor=none;fillColor=none;align=center;verticalAlign=middle;whiteSpace=wrap;rounded=0;labelBackgroundColor=none;fontColor=#143642;sketch=1;curveFitting=1;jiggle=2;" parent="1" vertex="1">
          <mxGeometry x="201" y="421" width="87" height="30" as="geometry" />
        </mxCell>
        <mxCell id="11U5n9VlO6xv_BTQKGKY-150" value="" style="edgeStyle=orthogonalEdgeStyle;fontSize=12;html=1;endArrow=ERzeroToMany;startArrow=ERmandOne;rounded=0;exitX=0.179;exitY=1.01;exitDx=0;exitDy=0;entryX=0.25;entryY=0;entryDx=0;entryDy=0;exitPerimeter=0;labelBackgroundColor=none;fontColor=default;strokeColor=#A8201A;sketch=1;curveFitting=1;jiggle=2;" parent="1" source="C-vyLk0tnHw3VtMMgP7b-23" target="11U5n9VlO6xv_BTQKGKY-24" edge="1">
          <mxGeometry width="100" height="100" relative="1" as="geometry">
            <mxPoint x="-40" y="838" as="sourcePoint" />
            <mxPoint x="60" y="738" as="targetPoint" />
          </mxGeometry>
        </mxCell>
        <mxCell id="11U5n9VlO6xv_BTQKGKY-151" value="" style="edgeStyle=orthogonalEdgeStyle;fontSize=12;html=1;endArrow=ERzeroToMany;startArrow=ERmandOne;rounded=0;exitX=0;exitY=0.5;exitDx=0;exitDy=0;labelBackgroundColor=none;fontColor=default;strokeColor=#A8201A;entryX=0;entryY=0.5;entryDx=0;entryDy=0;sketch=1;curveFitting=1;jiggle=2;" parent="1" source="C-vyLk0tnHw3VtMMgP7b-23" target="11U5n9VlO6xv_BTQKGKY-34" edge="1">
          <mxGeometry width="100" height="100" relative="1" as="geometry">
            <mxPoint x="69.93000000000006" y="515.15" as="sourcePoint" />
            <mxPoint x="140" y="590" as="targetPoint" />
            <Array as="points">
              <mxPoint x="120" y="465" />
              <mxPoint x="120" y="590" />
            </Array>
          </mxGeometry>
        </mxCell>
        <mxCell id="11U5n9VlO6xv_BTQKGKY-152" value="many" style="text;html=1;strokeColor=none;fillColor=none;align=center;verticalAlign=middle;whiteSpace=wrap;rounded=0;labelBackgroundColor=none;fontColor=#143642;sketch=1;curveFitting=1;jiggle=2;" parent="1" vertex="1">
          <mxGeometry x="113" y="567" width="60" height="30" as="geometry" />
        </mxCell>
        <mxCell id="11U5n9VlO6xv_BTQKGKY-153" value="1" style="text;html=1;strokeColor=none;fillColor=none;align=center;verticalAlign=middle;whiteSpace=wrap;rounded=0;labelBackgroundColor=none;fontColor=#143642;sketch=1;curveFitting=1;jiggle=2;" parent="1" vertex="1">
          <mxGeometry x="85" y="444" width="60" height="30" as="geometry" />
        </mxCell>
        <mxCell id="11U5n9VlO6xv_BTQKGKY-154" value="" style="edgeStyle=orthogonalEdgeStyle;fontSize=12;html=1;endArrow=ERzeroToMany;startArrow=ERmandOne;rounded=0;entryX=1;entryY=0.5;entryDx=0;entryDy=0;exitX=0.75;exitY=1;exitDx=0;exitDy=0;labelBackgroundColor=none;fontColor=default;strokeColor=#A8201A;sketch=1;curveFitting=1;jiggle=2;" parent="1" source="11U5n9VlO6xv_BTQKGKY-14" target="11U5n9VlO6xv_BTQKGKY-29" edge="1">
          <mxGeometry width="100" height="100" relative="1" as="geometry">
            <mxPoint x="700" y="540" as="sourcePoint" />
            <mxPoint x="760" y="590" as="targetPoint" />
          </mxGeometry>
        </mxCell>
        <mxCell id="yuzDho1RiVitaETq66WY-2" value="AttributeKind 属性类型" style="shape=table;startSize=30;container=1;collapsible=1;childLayout=tableLayout;fixedRows=1;rowLines=0;fontStyle=1;align=center;resizeLast=1;labelBackgroundColor=none;fillColor=#FAE5C7;strokeColor=#0F8B8D;fontColor=#143642;rounded=0;sketch=1;curveFitting=1;jiggle=2;" vertex="1" parent="1">
          <mxGeometry x="426" y="478" width="170" height="30" as="geometry" />
        </mxCell>
        <mxCell id="yuzDho1RiVitaETq66WY-3" value="" style="shape=partialRectangle;collapsible=0;dropTarget=0;pointerEvents=0;fillColor=none;points=[[0,0.5],[1,0.5]];portConstraint=eastwest;top=0;left=0;right=0;bottom=1;labelBackgroundColor=none;strokeColor=#0F8B8D;fontColor=#143642;rounded=0;sketch=1;curveFitting=1;jiggle=2;" vertex="1" visible="0" parent="yuzDho1RiVitaETq66WY-2">
          <mxGeometry y="30" width="250" height="30" as="geometry" />
        </mxCell>
        <mxCell id="yuzDho1RiVitaETq66WY-4" value="" style="shape=partialRectangle;overflow=hidden;connectable=0;fillColor=none;top=0;left=0;bottom=0;right=0;fontStyle=1;labelBackgroundColor=none;strokeColor=#0F8B8D;fontColor=#143642;rounded=0;sketch=1;curveFitting=1;jiggle=2;" vertex="1" parent="yuzDho1RiVitaETq66WY-3">
          <mxGeometry width="30" height="30" as="geometry">
            <mxRectangle width="30" height="30" as="alternateBounds" />
          </mxGeometry>
        </mxCell>
        <mxCell id="yuzDho1RiVitaETq66WY-5" value="" style="shape=partialRectangle;overflow=hidden;connectable=0;fillColor=none;top=0;left=0;bottom=0;right=0;align=left;spacingLeft=6;fontStyle=5;labelBackgroundColor=none;strokeColor=#0F8B8D;fontColor=#143642;rounded=0;sketch=1;curveFitting=1;jiggle=2;" vertex="1" parent="yuzDho1RiVitaETq66WY-3">
          <mxGeometry x="30" width="220" height="30" as="geometry">
            <mxRectangle width="220" height="30" as="alternateBounds" />
          </mxGeometry>
        </mxCell>
        <mxCell id="yuzDho1RiVitaETq66WY-6" value="" style="edgeStyle=orthogonalEdgeStyle;fontSize=12;html=1;endArrow=ERzeroToMany;startArrow=ERmandOne;rounded=0;exitX=0.118;exitY=1.033;exitDx=0;exitDy=0;entryX=0.5;entryY=0;entryDx=0;entryDy=0;exitPerimeter=0;labelBackgroundColor=none;fontColor=default;strokeColor=#A8201A;sketch=1;curveFitting=1;jiggle=2;" edge="1" parent="1" source="11U5n9VlO6xv_BTQKGKY-19" target="yuzDho1RiVitaETq66WY-2">
          <mxGeometry width="100" height="100" relative="1" as="geometry">
            <mxPoint x="347" y="490" as="sourcePoint" />
            <mxPoint x="420" y="530" as="targetPoint" />
          </mxGeometry>
        </mxCell>
        <mxCell id="yuzDho1RiVitaETq66WY-7" value="1" style="text;html=1;strokeColor=none;fillColor=none;align=center;verticalAlign=middle;whiteSpace=wrap;rounded=0;labelBackgroundColor=none;fontColor=#143642;sketch=1;curveFitting=1;jiggle=2;" vertex="1" parent="1">
          <mxGeometry x="375" y="435" width="60" height="30" as="geometry" />
        </mxCell>
        <mxCell id="yuzDho1RiVitaETq66WY-8" value="many optional" style="text;html=1;strokeColor=none;fillColor=none;align=center;verticalAlign=middle;whiteSpace=wrap;rounded=0;labelBackgroundColor=none;fontColor=#143642;sketch=1;curveFitting=1;jiggle=2;" vertex="1" parent="1">
          <mxGeometry x="424" y="454" width="87" height="30" as="geometry" />
        </mxCell>
      </root>
    </mxGraphModel>
  </diagram>
</mxfile>
